<svg width="32" height="32" viewBox="0 0 32 32" fill="none" xmlns="http://www.w3.org/2000/svg">
<g clip-path="url(#clip0_9_2)">
<mask id="path-1-inside-1_9_2" fill="white">
<path d="M11.4717 4.29575C13.7481 3.0822 16.2232 2.61382 18.6168 2.80624C18.3104 2.93559 18.0065 3.07852 17.7072 3.23806C12.3463 6.09597 10.3172 12.7587 13.1751 18.1196C16.033 23.4805 22.6957 25.5096 28.0566 22.6517C28.3559 22.4922 28.6434 22.3187 28.9217 22.1363C27.7472 24.2311 25.9794 26.0255 23.7028 27.2392C17.3672 30.6167 9.49309 28.2187 6.11556 21.883C2.73803 15.5474 5.13606 7.67328 11.4717 4.29575Z"/>
</mask>
<path d="M11.4717 4.29575C13.7481 3.0822 16.2232 2.61382 18.6168 2.80624C18.3104 2.93559 18.0065 3.07852 17.7072 3.23806C12.3463 6.09597 10.3172 12.7587 13.1751 18.1196C16.033 23.4805 22.6957 25.5096 28.0566 22.6517C28.3559 22.4922 28.6434 22.3187 28.9217 22.1363C27.7472 24.2311 25.9794 26.0255 23.7028 27.2392C17.3672 30.6167 9.49309 28.2187 6.11556 21.883C2.73803 15.5474 5.13606 7.67328 11.4717 4.29575Z" fill="#FFF4B5"/>
<path d="M18.6168 2.80624L18.8113 3.2669L18.6569 2.30785L18.6168 2.80624ZM28.9217 22.1363L29.3578 22.3808L28.6476 21.7181L28.9217 22.1363ZM11.4717 4.29575L11.7069 4.73697C13.8965 3.56971 16.2756 3.11966 18.5768 3.30463L18.6168 2.80624L18.6569 2.30785C16.1707 2.10799 13.5997 2.59468 11.2365 3.85453L11.4717 4.29575ZM18.6168 2.80624L18.4224 2.34559C18.1035 2.4802 17.7858 2.62952 17.472 2.79684L17.7072 3.23806L17.9424 3.67928C18.2271 3.52752 18.5172 3.39099 18.8113 3.2669L18.6168 2.80624ZM17.7072 3.23806L17.472 2.79684C11.8674 5.78466 9.74603 12.7502 12.7338 18.3548L13.1751 18.1196L13.6163 17.8844C10.8883 12.7671 12.8252 6.40728 17.9424 3.67928L17.7072 3.23806ZM13.1751 18.1196L12.7338 18.3548C15.7217 23.9594 22.6872 26.0807 28.2918 23.0929L28.0566 22.6517L27.8214 22.2105C22.7041 24.9385 16.3443 23.0016 13.6163 17.8844L13.1751 18.1196ZM28.0566 22.6517L28.2918 23.0929C28.6065 22.9252 28.9071 22.7437 29.1958 22.5545L28.9217 22.1363L28.6476 21.7181C28.3798 21.8937 28.1053 22.0591 27.8214 22.2105L28.0566 22.6517ZM28.9217 22.1363L28.4856 21.8918C27.3564 23.9057 25.6572 25.6306 23.4676 26.7979L23.7028 27.2392L23.938 27.6804C26.3015 26.4204 28.138 24.5565 29.3578 22.3808L28.9217 22.1363ZM23.7028 27.2392L23.4676 26.7979C17.3756 30.0456 9.8044 27.7398 6.55678 21.6478L6.11556 21.883L5.67434 22.1182C9.18177 28.6975 17.3587 31.1878 23.938 27.6804L23.7028 27.2392ZM6.11556 21.883L6.55678 21.6478C3.30915 15.5558 5.61495 7.98459 11.7069 4.73697L11.4717 4.29575L11.2365 3.85453C4.65716 7.36196 2.1669 15.5389 5.67434 22.1182L6.11556 21.883Z" fill="#CAABDD" mask="url(#path-1-inside-1_9_2)"/>
</g>
<defs>
<clipPath id="clip0_9_2">
<rect width="32" height="32" fill="white"/>
</clipPath>
</defs>
</svg>
